<svg width="26" height="17" viewBox="0 0 26 17" fill="none" xmlns="http://www.w3.org/2000/svg">
<path id="Vector" d="M8 8.5C7.20887 8.5 6.43552 8.26541 5.77772 7.82588C5.11992 7.38635 4.60723 6.76164 4.30448 6.03074C4.00173 5.29983 3.92252 4.49556 4.07686 3.71964C4.2312 2.94372 4.61216 2.23099 5.17157 1.67158C5.73098 1.11217 6.44371 0.731202 7.21964 0.576861C7.99556 0.42252 8.79983 0.501733 9.53073 0.804484C10.2616 1.10723 10.8864 1.61993 11.3259 2.27772C11.7654 2.93552 12 3.70888 12 4.5C12 5.56087 11.5786 6.57828 10.8284 7.32843C10.0783 8.07857 9.06087 8.5 8 8.5ZM8 3.5C7.80222 3.5 7.60888 3.55865 7.44443 3.66853C7.27998 3.77841 7.15181 3.93459 7.07612 4.11732C7.00043 4.30005 6.98063 4.50111 7.01921 4.69509C7.0578 4.88907 7.15304 5.06726 7.29289 5.20711C7.43274 5.34696 7.61093 5.4422 7.80491 5.48079C7.99889 5.51937 8.19996 5.49957 8.38268 5.42388C8.56541 5.34819 8.72159 5.22002 8.83147 5.05557C8.94135 4.89112 9 4.69778 9 4.5C9 4.23479 8.89464 3.98043 8.70711 3.79289C8.51957 3.60536 8.26522 3.5 8 3.5ZM14 16.5C13.6038 16.4948 13.2253 16.3351 12.9451 16.0549C12.6649 15.7747 12.5052 15.3962 12.5 15C12.5 13.64 12.16 12.5 8 12.5C3.84 12.5 3.5 13.64 3.5 15C3.5 15.3978 3.34196 15.7794 3.06066 16.0607C2.77936 16.342 2.39782 16.5 2 16.5C1.60218 16.5 1.22064 16.342 0.93934 16.0607C0.658035 15.7794 0.5 15.3978 0.5 15C0.5 9.5 6.14 9.5 8 9.5C9.86 9.5 15.5 9.5 15.5 15C15.4948 15.3962 15.3351 15.7747 15.0549 16.0549C14.7747 16.3351 14.3962 16.4948 14 16.5ZM24 6.5H18C17.6022 6.5 17.2206 6.34197 16.9393 6.06066C16.658 5.77936 16.5 5.39783 16.5 5C16.5 4.60218 16.658 4.22065 16.9393 3.93934C17.2206 3.65804 17.6022 3.5 18 3.5H24C24.3978 3.5 24.7794 3.65804 25.0607 3.93934C25.342 4.22065 25.5 4.60218 25.5 5C25.5 5.39783 25.342 5.77936 25.0607 6.06066C24.7794 6.34197 24.3978 6.5 24 6.5ZM22 12.5H18C17.6022 12.5 17.2206 12.342 16.9393 12.0607C16.658 11.7794 16.5 11.3978 16.5 11C16.5 10.6022 16.658 10.2206 16.9393 9.93934C17.2206 9.65804 17.6022 9.5 18 9.5H22C22.3978 9.5 22.7794 9.65804 23.0607 9.93934C23.342 10.2206 23.5 10.6022 23.5 11C23.5 11.3978 23.342 11.7794 23.0607 12.0607C22.7794 12.342 22.3978 12.5 22 12.5Z" fill="white"/>
</svg>
