<svg width="56" height="48" viewBox="0 0 56 48" fill="none" xmlns="http://www.w3.org/2000/svg">
<g id="solar:hand-money-linear">
<g id="Group">
<path id="Vector" d="M40.057 20.9084C41.405 19.7798 41.405 17.9656 41.405 14.3333C41.405 10.701 41.405 8.88681 40.057 7.75822M40.057 20.9084C38.709 22.037 36.5422 22.037 32.2038 22.037H23.0027C18.6644 22.037 16.4976 22.037 15.1496 20.9084M40.057 7.75822C38.709 6.62962 36.5422 6.62962 32.2038 6.62962H23.0027C18.6644 6.62962 16.4976 6.62962 15.1496 7.75822M15.1496 7.75822C13.8016 8.88681 13.8016 10.701 13.8016 14.3333C13.8016 17.9656 13.8016 19.7798 15.1496 20.9084M29.9036 14.3333C29.9036 14.8441 29.6612 15.334 29.2298 15.6952C28.7985 16.0563 28.2134 16.2593 27.6033 16.2593C26.9932 16.2593 26.4081 16.0563 25.9768 15.6952C25.5454 15.334 25.303 14.8441 25.303 14.3333C25.303 13.8225 25.5454 13.3327 25.9768 12.9715C26.4081 12.6103 26.9932 12.4074 27.6033 12.4074C28.2134 12.4074 28.7985 12.6103 29.2298 12.9715C29.6612 13.3327 29.9036 13.8225 29.9036 14.3333Z" stroke="white" stroke-width="1.875"/>
<path id="Vector_2" d="M41.4051 12.4074C39.5748 12.4074 37.8196 11.7987 36.5254 10.7151C35.2313 9.63159 34.5042 8.16199 34.5042 6.62962M41.4051 16.2593C39.5748 16.2593 37.8196 16.868 36.5254 17.9515C35.2313 19.0351 34.5042 20.5047 34.5042 22.037M13.8017 12.4074C15.632 12.4074 17.3872 11.7987 18.6814 10.7151C19.9755 9.63159 20.7026 8.16199 20.7026 6.62962M13.8017 16.2593C15.632 16.2593 17.3872 16.868 18.6814 17.9515C19.9755 19.0351 20.7026 20.5047 20.7026 22.037M11.5015 40.1176H16.7001C19.0234 40.1176 21.3766 40.3218 23.6377 40.7108C27.6747 41.4052 31.8285 41.4822 35.8982 40.9381C37.8948 40.6684 39.8547 40.2544 41.6305 39.5379C43.2315 38.8889 45.1936 37.9779 46.5117 36.9553C47.8274 35.9345 49.1984 34.2647 50.1691 32.959C51.0064 31.8381 50.6016 30.4649 49.2812 29.631C48.5392 29.1791 47.6454 28.9357 46.7279 28.9357C45.8104 28.9357 44.9165 29.1791 44.1746 29.631L40.018 32.2598C38.4078 33.2806 36.6481 34.2185 34.5525 34.4978C34.2995 34.5305 34.035 34.5613 33.7589 34.5883M33.7589 34.5883C33.6747 34.5965 33.5903 34.6042 33.5059 34.6114M33.7589 34.5883C34.1271 34.5049 34.4647 34.3461 34.7412 34.1261C35.0878 33.875 35.3708 33.5683 35.5736 33.2242C35.7764 32.8801 35.8948 32.5054 35.9218 32.1223C35.9488 31.7392 35.8839 31.3555 35.7309 30.9938C35.5779 30.632 35.3399 30.2996 35.031 30.0161C34.7312 29.7375 34.3821 29.4991 33.9959 29.3093C27.562 26.095 17.5489 28.5428 11.5015 32.1347M33.7589 34.5883C33.6758 34.6035 33.591 34.6112 33.5059 34.6114M33.5059 34.6114C32.1187 34.7281 30.7211 34.7307 29.3332 34.6191" stroke="white" stroke-width="1.875" stroke-linecap="round"/>
<path id="Vector_3" d="M11.5014 30.7037C11.5014 29.1082 9.95661 27.8148 8.051 27.8148C6.14539 27.8148 4.60059 29.1082 4.60059 30.7037V40.3333C4.60059 41.9288 6.14539 43.2222 8.051 43.2222C9.95661 43.2222 11.5014 41.9288 11.5014 40.3333V30.7037Z" stroke="white" stroke-width="1.875"/>
</g>
</g>
</svg>
