<svg width="30" height="30" viewBox="0 0 30 30" fill="none" xmlns="http://www.w3.org/2000/svg">
<g id="flat-color-icons:business-contact">
<path id="Vector" d="M25 4.375H5C3.625 4.375 2.5 5.5 2.5 6.875V23.125C2.5 24.5 3.625 25.625 5 25.625H8.125V24.8125C7.75 24.625 7.5 24.1875 7.5 23.75C7.5 23.0625 8.0625 22.5 8.75 22.5C9.4375 22.5 10 23.0625 10 23.75C10 24.1875 9.75 24.625 9.375 24.8125V25.625H20.625V24.8125C20.25 24.625 20 24.1875 20 23.75C20 23.0625 20.5625 22.5 21.25 22.5C21.9375 22.5 22.5 23.0625 22.5 23.75C22.5 24.1875 22.25 24.625 21.875 24.8125V25.625H25C26.375 25.625 27.5 24.5 27.5 23.125V6.875C27.5 5.5 26.375 4.375 25 4.375Z" fill="#B962C0"/>
<g id="Group">
<path id="Vector_2" d="M15 13.75C16.3807 13.75 17.5 12.6307 17.5 11.25C17.5 9.86929 16.3807 8.75 15 8.75C13.6193 8.75 12.5 9.86929 12.5 11.25C12.5 12.6307 13.6193 13.75 15 13.75Z" fill="#D1C4E9"/>
<path id="Vector_3" d="M19.375 17.5C19.375 17.5 18.1875 15 15 15C11.8125 15 10.625 17.5 10.625 17.5V18.75H19.375V17.5Z" fill="#D1C4E9"/>
</g>
</g>
</svg>
