<svg width="17" height="16" viewBox="0 0 17 16" fill="none" xmlns="http://www.w3.org/2000/svg">
<g id="uil:calender">
<path id="Vector" d="M13.423 3.25H12.0335V2.625C12.0335 2.45924 11.9603 2.30027 11.83 2.18306C11.6997 2.06585 11.523 2 11.3387 2C11.1544 2 10.9777 2.06585 10.8474 2.18306C10.7171 2.30027 10.6439 2.45924 10.6439 2.625V3.25H6.47526V2.625C6.47526 2.45924 6.40206 2.30027 6.27176 2.18306C6.14147 2.06585 5.96475 2 5.78048 2C5.59621 2 5.41949 2.06585 5.2892 2.18306C5.1589 2.30027 5.0857 2.45924 5.0857 2.625V3.25H3.69615C3.14335 3.25 2.61319 3.44754 2.2223 3.79917C1.83142 4.15081 1.61182 4.62772 1.61182 5.125V12.625C1.61182 13.1223 1.83142 13.5992 2.2223 13.9508C2.61319 14.3025 3.14335 14.5 3.69615 14.5H13.423C13.9758 14.5 14.506 14.3025 14.8969 13.9508C15.2878 13.5992 15.5074 13.1223 15.5074 12.625V5.125C15.5074 4.62772 15.2878 4.15081 14.8969 3.79917C14.506 3.44754 13.9758 3.25 13.423 3.25ZM14.1178 12.625C14.1178 12.7908 14.0446 12.9497 13.9143 13.0669C13.784 13.1842 13.6073 13.25 13.423 13.25H3.69615C3.51188 13.25 3.33516 13.1842 3.20487 13.0669C3.07457 12.9497 3.00137 12.7908 3.00137 12.625V8.25H14.1178V12.625ZM14.1178 7H3.00137V5.125C3.00137 4.95924 3.07457 4.80027 3.20487 4.68306C3.33516 4.56585 3.51188 4.5 3.69615 4.5H5.0857V5.125C5.0857 5.29076 5.1589 5.44973 5.2892 5.56694C5.41949 5.68415 5.59621 5.75 5.78048 5.75C5.96475 5.75 6.14147 5.68415 6.27176 5.56694C6.40206 5.44973 6.47526 5.29076 6.47526 5.125V4.5H10.6439V5.125C10.6439 5.29076 10.7171 5.44973 10.8474 5.56694C10.9777 5.68415 11.1544 5.75 11.3387 5.75C11.523 5.75 11.6997 5.68415 11.83 5.56694C11.9603 5.44973 12.0335 5.29076 12.0335 5.125V4.5H13.423C13.6073 4.5 13.784 4.56585 13.9143 4.68306C14.0446 4.80027 14.1178 4.95924 14.1178 5.125V7Z" fill="white"/>
</g>
</svg>
