<svg xmlns="http://www.w3.org/2000/svg" width="40" height="40" viewBox="0 0 40 40" fill="none">
  <g clip-path="url(#clip0_629_216)">
    <path fill-rule="evenodd" clip-rule="evenodd" d="M32.4917 5.22165C32.8608 4.99935 33.3017 4.92863 33.7218 5.02434C34.1419 5.12004 34.5086 5.37474 34.745 5.73499L36.395 8.25165C36.6106 8.58057 36.7029 8.97511 36.6556 9.36551C36.6083 9.75591 36.4245 10.117 36.1367 10.385L36.1317 10.3917L36.1084 10.4133L36.0134 10.5017L35.6384 10.86C33.5633 12.8726 31.5513 14.9492 29.605 17.0867C25.9434 21.1133 21.595 26.3833 18.6684 31.4966C17.8517 32.9233 15.8567 33.23 14.6734 31.9983L3.86502 20.7683C3.71013 20.6073 3.58918 20.4168 3.50938 20.2082C3.42957 19.9995 3.39253 19.7769 3.40046 19.5536C3.40839 19.3304 3.46113 19.111 3.55554 18.9085C3.64994 18.706 3.7841 18.5246 3.95002 18.375L7.21669 15.4283C7.50375 15.1695 7.87185 15.0185 8.25798 15.0012C8.64411 14.9838 9.02425 15.1013 9.33335 15.3333L14.8484 19.4683C23.4617 10.9733 28.3484 7.71332 32.4917 5.22165Z" fill="white"/>
  </g>
  <defs>
    <clipPath id="clip0_629_216">
      <rect width="40" height="40" fill="white"/>
    </clipPath>
  </defs>
</svg>