<svg width="49" height="48" viewBox="0 0 49 48" fill="none" xmlns="http://www.w3.org/2000/svg">
<g id="arcticons:connectips">
<path id="Vector" d="M32.929 16.2573L35.0142 19.4236L38.3026 17.4167" stroke="white" stroke-width="1.3" stroke-linecap="round" stroke-linejoin="round"/>
<path id="Vector_2" d="M35.6862 15.0556C35.6876 13.8871 35.4498 12.7298 34.9866 11.6498C34.5234 10.5698 33.8438 9.58818 32.9867 8.76105C32.1295 7.93392 31.1115 7.27746 29.9908 6.82913C28.8701 6.38081 27.6687 6.14941 26.4551 6.14815H20.9765C19.7629 6.14941 18.5615 6.38081 17.4408 6.82913C16.3201 7.27746 15.3021 7.93392 14.445 8.76105C13.5878 9.58818 12.9082 10.5698 12.445 11.6498C11.9818 12.7298 11.7441 13.8871 11.7454 15.0556V15.0556C11.7441 16.224 11.9818 17.3813 12.445 18.4613C12.9082 19.5413 13.5878 20.5229 14.445 21.3501C15.3021 22.1772 16.3201 22.8337 17.4408 23.282C18.5615 23.7303 19.7629 23.9617 20.9765 23.963H27.0292C28.2428 23.9642 29.4442 24.1956 30.5649 24.6439C31.6855 25.0923 32.7035 25.7487 33.5607 26.5759C34.4179 27.403 35.0975 28.3846 35.5607 29.4646C36.0239 30.5446 36.2616 31.7019 36.2603 32.8704V32.8704C36.2616 34.0388 36.0239 35.1961 35.5607 36.2761C35.0975 37.3561 34.4179 38.3377 33.5607 39.1649C32.7035 39.992 31.6855 40.6485 30.5649 41.0968C29.4442 41.5451 28.2428 41.7765 27.0292 41.7778H21.5505" stroke="white" stroke-width="1.3" stroke-linecap="round" stroke-linejoin="round"/>
<path id="Vector_3" d="M35.6862 15.0556C35.6876 13.8871 35.4498 12.7298 34.9866 11.6498C34.5234 10.5698 33.8438 9.58818 32.9867 8.76105C32.1295 7.93392 31.1115 7.27746 29.9908 6.82913C28.8701 6.38081 27.6687 6.14941 26.4551 6.14815H20.9765C19.7629 6.14941 18.5615 6.38081 17.4408 6.82913C16.3201 7.27746 15.3021 7.93392 14.445 8.76105C13.5878 9.58818 12.9082 10.5698 12.445 11.6498C11.9818 12.7298 11.7441 13.8871 11.7454 15.0556V15.0556C11.7441 16.224 11.9818 17.3813 12.445 18.4613C12.9082 19.5413 13.5878 20.5229 14.445 21.3501C15.3021 22.1772 16.3201 22.8337 17.4408 23.282C18.5615 23.7303 19.7629 23.9617 20.9765 23.963H27.0292C28.2428 23.9642 29.4442 24.1956 30.5649 24.6439C31.6855 25.0923 32.7035 25.7487 33.5607 26.5759C34.4179 27.403 35.0975 28.3846 35.5607 29.4646C36.0239 30.5446 36.2616 31.7019 36.2603 32.8704V32.8704C36.2616 34.0388 36.0239 35.1961 35.5607 36.2761C35.0975 37.3561 34.4179 38.3377 33.5607 39.1649C32.7035 39.992 31.6855 40.6485 30.5649 41.0968C29.4442 41.5451 28.2428 41.7765 27.0292 41.7778H21.5505" stroke="white" stroke-width="1.3" stroke-linecap="round" stroke-linejoin="round"/>
<path id="Vector_4" d="M35.6862 15.0556C35.7202 16.5377 35.493 18.0146 35.0142 19.4236M15.0768 31.6686L12.9915 28.5024L9.70312 30.5092M12.3194 32.8704C12.3181 34.0388 12.5559 35.1961 13.019 36.2761C13.4822 37.3562 14.1618 38.3377 15.019 39.1649C15.8762 39.992 16.8942 40.6485 18.0149 41.0968C19.1356 41.5451 20.337 41.7765 21.5505 41.7778" stroke="white" stroke-width="1.3" stroke-linecap="round" stroke-linejoin="round"/>
<path id="Vector_5" d="M21.5506 41.7778C20.337 41.7765 19.1356 41.5451 18.0149 41.0968C16.8942 40.6485 15.8763 39.992 15.0191 39.1649C14.1619 38.3377 13.4823 37.3561 13.0191 36.2761C12.5559 35.1961 12.3182 34.0388 12.3195 32.8704C12.2855 31.3883 12.5128 29.9113 12.9916 28.5024M32.0058 32.5574L28.7175 34.5652L30.8017 37.7314" stroke="white" stroke-width="1.3" stroke-linecap="round" stroke-linejoin="round"/>
<path id="Vector_6" d="M33.2539 35.2123C34.4675 35.2136 35.6694 34.9847 36.7911 34.5387C37.9128 34.0927 38.9323 33.4384 39.7913 32.613C40.6504 31.7877 41.3322 30.8075 41.7978 29.7284C42.2634 28.6494 42.5037 27.4926 42.5051 26.3242V21.049C42.5037 19.8806 42.2634 18.7238 41.7978 17.6447C41.3322 16.5657 40.6504 15.5855 39.7913 14.7602C38.9323 13.9348 37.9128 13.2805 36.7911 12.8345C35.6694 12.3885 34.4675 12.1596 33.2539 12.1609V12.1609C32.0404 12.1596 30.8385 12.3885 29.7168 12.8345C28.5951 13.2805 27.5756 13.9348 26.7166 14.7602C25.8575 15.5855 25.1757 16.5657 24.7101 17.6447C24.2445 18.7238 24.0041 19.8806 24.0028 21.049V26.8769C24.0015 28.0454 23.7612 29.2021 23.2956 30.2812C22.8299 31.3602 22.1482 32.3404 21.2891 33.1658C20.4301 33.9911 19.4106 34.6454 18.2889 35.0914C17.1672 35.5374 15.9653 35.7663 14.7517 35.765V35.765C13.5382 35.7663 12.3362 35.5374 11.2145 35.0914C10.0929 34.6454 9.07338 33.9911 8.21434 33.1658C7.35529 32.3404 6.6735 31.3602 6.20787 30.2812C5.74225 29.2021 5.50192 28.0454 5.50061 26.8769V21.6018" stroke="white" stroke-width="1.3" stroke-linecap="round" stroke-linejoin="round"/>
<path id="Vector_7" d="M33.2539 35.2123C34.4675 35.2136 35.6694 34.9847 36.7911 34.5387C37.9128 34.0927 38.9323 33.4384 39.7913 32.613C40.6504 31.7877 41.3322 30.8075 41.7978 29.7284C42.2634 28.6494 42.5037 27.4926 42.5051 26.3242V21.049C42.5037 19.8806 42.2634 18.7238 41.7978 17.6447C41.3322 16.5657 40.6504 15.5855 39.7913 14.7602C38.9323 13.9348 37.9128 13.2805 36.7911 12.8345C35.6694 12.3885 34.4675 12.1596 33.2539 12.1609V12.1609C32.0404 12.1596 30.8385 12.3885 29.7168 12.8345C28.5951 13.2805 27.5756 13.9348 26.7166 14.7602C25.8575 15.5855 25.1757 16.5657 24.7101 17.6447C24.2445 18.7238 24.0041 19.8806 24.0028 21.049V26.8769C24.0015 28.0454 23.7612 29.2021 23.2956 30.2812C22.8299 31.3602 22.1482 32.3404 21.2891 33.1658C20.4301 33.9911 19.4106 34.6454 18.2889 35.0914C17.1672 35.5374 15.9653 35.7663 14.7517 35.765V35.765C13.5382 35.7663 12.3362 35.5374 11.2145 35.0914C10.0929 34.6454 9.07338 33.9911 8.21434 33.1658C7.35529 32.3404 6.6735 31.3602 6.20787 30.2812C5.74225 29.2021 5.50192 28.0454 5.50061 26.8769V21.6018" stroke="white" stroke-width="1.3" stroke-linecap="round" stroke-linejoin="round"/>
<path id="Vector_8" d="M33.2539 35.2123C31.7146 35.245 30.1807 35.0262 28.7174 34.5652M15.9999 15.3685L19.2883 13.3607L17.204 10.1945M14.7517 12.7136C13.5382 12.7124 12.3362 12.9413 11.2145 13.3872C10.0929 13.8332 9.07338 14.4876 8.21434 15.3129C7.35529 16.1383 6.6735 17.1184 6.20787 18.1975C5.74225 19.2765 5.50192 20.4333 5.50061 21.6018" stroke="white" stroke-width="1.3" stroke-linecap="round" stroke-linejoin="round"/>
<path id="Vector_9" d="M5.50061 21.6018C5.50192 20.4333 5.74225 19.2765 6.20787 18.1975C6.6735 17.1184 7.35529 16.1383 8.21434 15.3129C9.07338 14.4876 10.0929 13.8332 11.2145 13.3872C12.3362 12.9413 13.5382 12.7124 14.7517 12.7136C16.291 12.6809 17.8249 12.8997 19.2883 13.3607" stroke="white" stroke-width="1.3" stroke-linecap="round" stroke-linejoin="round"/>
</g>
</svg>
