<svg width="41" height="37" viewBox="0 0 41 37" fill="none" xmlns="http://www.w3.org/2000/svg">
<g id="bi:chat-left-dots" clip-path="url(#clip0_446_2710)">
<g id="Group">
<path id="Vector" d="M35.7043 3.18519C36.3807 3.18519 37.0294 3.41932 37.5076 3.83606C37.9859 4.25281 38.2546 4.81804 38.2546 5.40741V23.1852C38.2546 23.7746 37.9859 24.3398 37.5076 24.7565C37.0294 25.1733 36.3807 25.4074 35.7043 25.4074H11.2571C9.9044 25.4077 8.60725 25.8761 7.65092 26.7096L2.55031 31.1541V5.40741C2.55031 4.81804 2.819 4.25281 3.29727 3.83606C3.77555 3.41932 4.42423 3.18519 5.10061 3.18519H35.7043ZM5.10061 0.962967C3.74785 0.962967 2.45049 1.43122 1.49394 2.26471C0.537385 3.09821 0 4.22867 0 5.40741L0 33.8363C5.35944e-05 34.0562 0.0749601 34.2711 0.215239 34.4538C0.355518 34.6366 0.554862 34.7789 0.788043 34.8629C1.02122 34.9469 1.27776 34.9687 1.52518 34.9256C1.77259 34.8825 1.99977 34.7764 2.17796 34.6207L9.45399 28.2807C9.93215 27.864 10.5807 27.6298 11.2571 27.6296H35.7043C37.0571 27.6296 38.3544 27.1614 39.311 26.3279C40.2675 25.4944 40.8049 24.3639 40.8049 23.1852V5.40741C40.8049 4.22867 40.2675 3.09821 39.311 2.26471C38.3544 1.43122 37.0571 0.962967 35.7043 0.962967L5.10061 0.962967Z" fill="white"/>
<path id="Vector_2" d="M12.7516 14.2963C12.7516 14.8857 12.4829 15.4509 12.0046 15.8677C11.5263 16.2844 10.8776 16.5185 10.2012 16.5185C9.52486 16.5185 8.87618 16.2844 8.39791 15.8677C7.91963 15.4509 7.65094 14.8857 7.65094 14.2963C7.65094 13.7069 7.91963 13.1417 8.39791 12.725C8.87618 12.3082 9.52486 12.0741 10.2012 12.0741C10.8776 12.0741 11.5263 12.3082 12.0046 12.725C12.4829 13.1417 12.7516 13.7069 12.7516 14.2963ZM22.9528 14.2963C22.9528 14.8857 22.6841 15.4509 22.2058 15.8677C21.7275 16.2844 21.0789 16.5185 20.4025 16.5185C19.7261 16.5185 19.0774 16.2844 18.5991 15.8677C18.1209 15.4509 17.8522 14.8857 17.8522 14.2963C17.8522 13.7069 18.1209 13.1417 18.5991 12.725C19.0774 12.3082 19.7261 12.0741 20.4025 12.0741C21.0789 12.0741 21.7275 12.3082 22.2058 12.725C22.6841 13.1417 22.9528 13.7069 22.9528 14.2963ZM33.154 14.2963C33.154 14.8857 32.8853 15.4509 32.407 15.8677C31.9288 16.2844 31.2801 16.5185 30.6037 16.5185C29.9273 16.5185 29.2786 16.2844 28.8004 15.8677C28.3221 15.4509 28.0534 14.8857 28.0534 14.2963C28.0534 13.7069 28.3221 13.1417 28.8004 12.725C29.2786 12.3082 29.9273 12.0741 30.6037 12.0741C31.2801 12.0741 31.9288 12.3082 32.407 12.725C32.8853 13.1417 33.154 13.7069 33.154 14.2963Z" fill="white"/>
</g>
</g>
<defs>
<clipPath id="clip0_446_2710">
<rect width="40.8049" height="35.5556" fill="white" transform="translate(0 0.962967)"/>
</clipPath>
</defs>
</svg>
