<svg width="73" height="59" viewBox="0 0 73 59" fill="none" xmlns="http://www.w3.org/2000/svg">
<g id="iconoir:pc-check">
<g id="Group">
<path id="Vector" d="M21.2917 54.0833H51.7083" stroke="#666666" stroke-width="2" stroke-linecap="round" stroke-linejoin="round"/>
<path id="Vector_2" d="M6.08333 41.7917V9.83334C6.08333 8.52936 6.72425 7.27878 7.8651 6.35673C9.00595 5.43468 10.5533 4.91667 12.1667 4.91667H60.8333C62.4467 4.91667 63.994 5.43468 65.1349 6.35673C66.2757 7.27878 66.9167 8.52936 66.9167 9.83334V41.7917C66.9167 43.0957 66.2757 44.3462 65.1349 45.2683C63.994 46.1903 62.4467 46.7083 60.8333 46.7083H12.1667C10.5533 46.7083 9.00595 46.1903 7.8651 45.2683C6.72425 44.3462 6.08333 43.0957 6.08333 41.7917Z" stroke="#666666" stroke-width="2"/>
<path id="Vector_3" d="M27 24.5833L33.6 33.4333L46.8 15.7333" stroke="url(#paint0_linear_256_533)" stroke-width="1.875" stroke-linecap="round" stroke-linejoin="round"/>
</g>
</g>
<defs>
<linearGradient id="paint0_linear_256_533" x1="27" y1="24.5833" x2="46.8" y2="24.5833" gradientUnits="userSpaceOnUse">
<stop stop-color="#EACDA3"/>
<stop offset="1" stop-color="#D6AE7B"/>
</linearGradient>
</defs>
</svg>
