<svg width="50" height="47" viewBox="0 0 50 47" fill="none" xmlns="http://www.w3.org/2000/svg">
<g id="la:user-friends">
<path id="Vector" d="M13.824 10.5926C8.75522 10.5926 4.60801 14.4926 4.60801 19.2593C4.60801 22.125 6.10869 24.6759 8.4004 26.2561C4.34997 28.1455 1.53601 32.0628 1.53601 36.5926H4.60801C4.60801 31.7913 8.71835 27.9259 13.824 27.9259C18.9297 27.9259 23.04 31.7913 23.04 36.5926H26.112C26.112 31.7913 30.2224 27.9259 35.328 27.9259C40.4337 27.9259 44.5441 31.7913 44.5441 36.5926H47.6161C47.6161 32.0614 44.8021 28.1455 40.7517 26.2561C41.9244 25.4525 42.879 24.4001 43.538 23.1844C44.1969 21.9686 44.5416 20.6238 44.5441 19.2593C44.5441 14.4926 40.3968 10.5926 35.328 10.5926C30.2592 10.5926 26.112 14.4926 26.112 19.2593C26.112 22.125 27.6127 24.6759 29.9044 26.2561C27.6602 27.2938 25.8026 28.946 24.576 30.9954C23.3494 28.946 21.4918 27.2938 19.2476 26.2561C20.4204 25.4525 21.375 24.4001 22.034 23.1844C22.6929 21.9686 23.0376 20.6238 23.04 19.2593C23.04 14.4926 18.8928 10.5926 13.824 10.5926ZM13.824 13.4815C17.2386 13.4815 19.968 16.0483 19.968 19.2593C19.968 22.4703 17.2386 25.037 13.824 25.037C10.4095 25.037 7.68002 22.4703 7.68002 19.2593C7.68002 16.0483 10.4095 13.4815 13.824 13.4815ZM35.328 13.4815C38.7426 13.4815 41.472 16.0483 41.472 19.2593C41.472 22.4703 38.7426 25.037 35.328 25.037C31.9135 25.037 29.184 22.4703 29.184 19.2593C29.184 16.0483 31.9135 13.4815 35.328 13.4815Z" fill="white"/>
</g>
</svg>
