<svg width="34" height="32" viewBox="0 0 34 32" fill="none" xmlns="http://www.w3.org/2000/svg">
<g id="mingcute:lock-line" clip-path="url(#clip0_459_5321)">
<g id="Group">
<path id="Vector" d="M17 2.66667C19.1992 2.66659 21.3128 3.46876 22.8968 4.90462C24.4808 6.34049 25.4119 8.29828 25.4943 10.3667L25.5 10.6667H26.9167C27.6315 10.6665 28.32 10.9205 28.8441 11.378C29.3682 11.8355 29.6893 12.4625 29.7429 13.1333L29.75 13.3333V26.6667C29.7502 27.3394 29.4803 27.9874 28.9942 28.4807C28.5082 28.974 27.842 29.2762 27.1292 29.3267L26.9167 29.3333H7.08333C6.36852 29.3335 5.68003 29.0795 5.15589 28.622C4.63175 28.1645 4.31069 27.5375 4.25708 26.8667L4.25 26.6667V13.3333C4.24977 12.6606 4.51974 12.0126 5.00579 11.5193C5.49183 11.026 6.15803 10.7238 6.87083 10.6733L7.08333 10.6667H8.5C8.5 8.54494 9.39553 6.5101 10.9896 5.00981C12.5837 3.50952 14.7457 2.66667 17 2.66667ZM26.9167 13.3333H7.08333V26.6667H26.9167V13.3333ZM17 16C17.6043 16.0002 18.1928 16.1822 18.6794 16.5195C19.166 16.8568 19.5252 17.3318 19.7047 17.8749C19.8841 18.418 19.8743 19.0009 19.6767 19.5385C19.4792 20.076 19.1042 20.54 18.6065 20.8627L18.4167 20.976V22.6667C18.4163 23.0065 18.278 23.3334 18.0301 23.5805C17.7823 23.8276 17.4435 23.9763 17.083 23.9962C16.7226 24.0161 16.3676 23.9058 16.0907 23.6876C15.8138 23.4695 15.6359 23.1601 15.5932 22.8227L15.5833 22.6667V20.976C15.0432 20.6825 14.6211 20.2294 14.3824 19.6871C14.1438 19.1448 14.1019 18.5435 14.2633 17.9765C14.4248 17.4095 14.7805 16.9084 15.2753 16.5511C15.7701 16.1937 16.3763 16 17 16ZM17 5.33333C15.4971 5.33333 14.0558 5.89524 12.9931 6.89543C11.9304 7.89563 11.3333 9.25218 11.3333 10.6667H22.6667C22.6667 9.25218 22.0696 7.89563 21.0069 6.89543C19.9442 5.89524 18.5029 5.33333 17 5.33333Z" fill="white"/>
</g>
</g>
<defs>
<clipPath id="clip0_459_5321">
<rect width="34" height="32" fill="white"/>
</clipPath>
</defs>
</svg>
