<svg width="44" height="42" viewBox="0 0 44 42" fill="none" xmlns="http://www.w3.org/2000/svg">
<g id="clarity:organization-line" clip-path="url(#clip0_446_2701)">
<path id="Vector" d="M11.7614 21.8848H31.4438V25.4337H33.364V20.0412H22.5627V16.3539H20.6425V20.0412H9.84119V25.4337H11.7614V21.8848Z" fill="white"/>
<path id="Vector_2" d="M16.802 26.7243H4.80056C4.16396 26.7243 3.55344 26.9671 3.1033 27.3993C2.65316 27.8315 2.40027 28.4176 2.40027 29.0288V35.9424C2.40027 36.5536 2.65316 37.1398 3.1033 37.5719C3.55344 38.0041 4.16396 38.2469 4.80056 38.2469H16.802C17.4386 38.2469 18.0491 38.0041 18.4993 37.5719C18.9494 37.1398 19.2023 36.5536 19.2023 35.9424V29.0288C19.2023 28.4176 18.9494 27.8315 18.4993 27.3993C18.0491 26.9671 17.4386 26.7243 16.802 26.7243ZM4.80056 35.9424V29.0288H16.802V35.9424H4.80056Z" fill="white"/>
<path id="Vector_3" d="M38.4046 26.7243H26.4032C25.7666 26.7243 25.156 26.9671 24.7059 27.3993C24.2558 27.8315 24.0029 28.4176 24.0029 29.0288V35.9424C24.0029 36.5536 24.2558 37.1398 24.7059 37.5719C25.156 38.0041 25.7666 38.2469 26.4032 38.2469H38.4046C39.0412 38.2469 39.6517 38.0041 40.1019 37.5719C40.552 37.1398 40.8049 36.5536 40.8049 35.9424V29.0288C40.8049 28.4176 40.552 27.8315 40.1019 27.3993C39.6517 26.9671 39.0412 26.7243 38.4046 26.7243ZM26.4032 35.9424V29.0288H38.4046V35.9424H26.4032Z" fill="white"/>
<path id="Vector_4" d="M15.6019 15.2016H27.6033C28.2399 15.2016 28.8504 14.9589 29.3006 14.5267C29.7507 14.0945 30.0036 13.5083 30.0036 12.8971V5.98354C30.0036 5.37234 29.7507 4.78618 29.3006 4.354C28.8504 3.92181 28.2399 3.67902 27.6033 3.67902H15.6019C14.9653 3.67902 14.3548 3.92181 13.9046 4.354C13.4545 4.78618 13.2016 5.37234 13.2016 5.98354V12.8971C13.2016 13.5083 13.4545 14.0945 13.9046 14.5267C14.3548 14.9589 14.9653 15.2016 15.6019 15.2016ZM15.6019 5.98354H27.6033V12.8971H15.6019V5.98354Z" fill="white"/>
</g>
<defs>
<clipPath id="clip0_446_2701">
<rect width="43.2052" height="41.4815" fill="white" transform="translate(0 0.222229)"/>
</clipPath>
</defs>
</svg>
