<svg width="52" height="50" viewBox="0 0 52 50" fill="none" xmlns="http://www.w3.org/2000/svg">
<g id="healthicons:ui-user-profile">
<g id="Group">
<path id="Vector" d="M34.5341 20.7284C34.5341 22.8763 33.6245 24.9363 32.0054 26.4551C30.3863 27.9739 28.1904 28.8271 25.9006 28.8271C23.6109 28.8271 21.4149 27.9739 19.7958 26.4551C18.1767 24.9363 17.2671 22.8763 17.2671 20.7284C17.2671 18.5804 18.1767 16.5205 19.7958 15.0017C21.4149 13.4829 23.6109 12.6296 25.9006 12.6296C28.1904 12.6296 30.3863 13.4829 32.0054 15.0017C33.6245 16.5205 34.5341 18.5804 34.5341 20.7284Z" fill="white"/>
<path id="Vector_2" fill-rule="evenodd" clip-rule="evenodd" d="M25.02 45.0085C13.5082 44.5752 4.31677 35.6828 4.31677 24.7778C4.31677 13.5954 13.9798 4.53085 25.9006 4.53085C37.8213 4.53085 47.4844 13.5954 47.4844 24.7778C47.4844 35.9601 37.8213 45.0247 25.9006 45.0247C25.802 45.0253 25.7035 45.0253 25.6049 45.0247C25.4096 45.0247 25.2142 45.0186 25.02 45.0085ZM12.0503 37.5536C11.8889 37.1188 11.8339 36.6556 11.8895 36.1982C11.9451 35.7409 12.1098 35.3011 12.3714 34.9116C12.633 34.5221 12.9847 34.1929 13.4005 33.9484C13.8162 33.7038 14.2854 33.5503 14.7731 33.4991C23.1864 32.6255 28.6666 32.7044 37.0389 33.5173C37.5273 33.5651 37.9976 33.7167 38.414 33.9606C38.8304 34.2046 39.182 34.5345 39.442 34.9252C39.702 35.3159 39.8635 35.7571 39.9142 36.2152C39.9649 36.6733 39.9036 37.1363 39.7347 37.5688C43.323 34.1631 45.3325 29.5661 45.326 24.7778C45.326 14.714 36.6288 6.55554 25.9006 6.55554C15.1724 6.55554 6.47515 14.714 6.47515 24.7778C6.47515 29.7545 8.60224 34.2655 12.0503 37.5536Z" fill="white"/>
</g>
</g>
</svg>
