<svg width="18" height="19" viewBox="0 0 18 19" fill="none" xmlns="http://www.w3.org/2000/svg">
<g id="mingcute:search-3-line" clip-path="url(#clip0_455_4641)">
<g id="Group">
<path id="Vector" fill-rule="evenodd" clip-rule="evenodd" d="M8.67235 4.46483C7.31911 4.46483 6.0213 4.96658 5.06442 5.8597C4.10754 6.75283 3.56996 7.96416 3.56996 9.22723C3.56996 10.4903 4.10754 11.7016 5.06442 12.5948C6.0213 13.4879 7.31911 13.9896 8.67235 13.9896C10.0256 13.9896 11.3234 13.4879 12.2803 12.5948C13.2372 11.7016 13.7747 10.4903 13.7747 9.22723C13.7747 7.96416 13.2372 6.75283 12.2803 5.8597C11.3234 4.96658 10.0256 4.46483 8.67235 4.46483ZM2 9.22723C2.00009 8.23416 2.25462 7.2555 2.74235 6.37291C3.23009 5.49032 3.93688 4.72939 4.80376 4.15361C5.67065 3.57783 6.67249 3.20389 7.7257 3.063C8.7789 2.9221 9.85294 3.01834 10.8582 3.34367C11.8635 3.669 12.7708 4.21399 13.5045 4.93318C14.2382 5.65237 14.777 6.5249 15.0759 7.47797C15.3749 8.43105 15.4253 9.43703 15.223 10.412C15.0206 11.3869 14.5715 12.3026 13.9129 13.0826L16.7796 15.7583C16.9226 15.8965 17.0018 16.0816 17 16.2737C16.9982 16.4658 16.9156 16.6496 16.7701 16.7854C16.6245 16.9212 16.4277 16.9983 16.2218 17C16.016 17.0016 15.8177 16.9278 15.6697 16.7943L12.8029 14.1186C11.819 14.8425 10.6367 15.2932 9.39118 15.4192C8.14567 15.5451 6.88732 15.3413 5.76014 14.8309C4.63296 14.3206 3.6825 13.5243 3.01752 12.5333C2.35254 11.5423 1.99992 10.3966 2 9.22723ZM7.88737 6.66286C7.88737 6.46854 7.97007 6.28218 8.11728 6.14478C8.2645 6.00737 8.46416 5.93018 8.67235 5.93018C9.60921 5.93018 10.5077 6.27755 11.1701 6.89587C11.8326 7.51418 12.2048 8.3528 12.2048 9.22723C12.2048 9.42155 12.1221 9.60791 11.9749 9.74531C11.8276 9.88272 11.628 9.95991 11.4198 9.95991C11.2116 9.95991 11.0119 9.88272 10.8647 9.74531C10.7175 9.60791 10.6348 9.42155 10.6348 9.22723C10.6348 8.74144 10.428 8.27554 10.06 7.93203C9.69198 7.58852 9.19283 7.39554 8.67235 7.39554C8.46416 7.39554 8.2645 7.31834 8.11728 7.18094C7.97007 7.04354 7.88737 6.85718 7.88737 6.66286Z" fill="url(#paint0_linear_455_4641)"/>
</g>
</g>
<defs>
<linearGradient id="paint0_linear_455_4641" x1="2" y1="10" x2="17" y2="10" gradientUnits="userSpaceOnUse">
<stop stop-color="#EACDA3"/>
<stop offset="1" stop-color="#D6AE7B"/>
</linearGradient>
<clipPath id="clip0_455_4641">
<rect width="18" height="19" fill="white"/>
</clipPath>
</defs>
</svg>
