<svg width="44" height="41" viewBox="0 0 44 41" fill="none" xmlns="http://www.w3.org/2000/svg">
<g id="mdi:clock-check-outline">
<path id="Vector" d="M43.0833 28.4444L33.9167 36.7778L27.5 30.9444L30.25 28.4444L33.9167 31.7778L40.3333 25.9444L43.0833 28.4444ZM24.0167 33.2778C23.2833 33.4444 22.7333 33.4444 22 33.4444C13.9333 33.4444 7.33332 27.4444 7.33332 20.1111C7.33332 12.7778 13.9333 6.77778 22 6.77778C30.0667 6.77778 36.6667 12.7778 36.6667 20.1111C36.6667 20.7778 36.6667 21.2778 36.4833 21.9444C37.7667 22.1111 38.8667 22.4444 39.9667 22.9444C40.15 21.9444 40.3333 21.1111 40.3333 20.1111C40.3333 10.9444 32.0833 3.44444 22 3.44444C11.9167 3.44444 3.66666 10.9444 3.66666 20.1111C3.66666 29.2778 11.9167 36.7778 22 36.7778C23.1 36.7778 24.2 36.6111 25.1167 36.4444C24.5667 35.6111 24.2 34.4444 24.0167 33.2778ZM28.6 23.6111L22.9167 20.6111V11.7778H20.1667V21.7778L26.5833 25.2778C27.1333 24.6111 27.8667 24.1111 28.6 23.6111Z" fill="white"/>
</g>
</svg>
