<svg width="50" height="46" viewBox="0 0 50 46" fill="none" xmlns="http://www.w3.org/2000/svg">
<g id="fluent:document-queue-24-regular">
<path id="Vector" d="M18.0074 10.2345C17.5981 10.2345 17.2055 10.3828 16.916 10.6468C16.6265 10.9107 16.4639 11.2687 16.4639 11.642C16.4639 12.0152 16.6265 12.3732 16.916 12.6371C17.2055 12.9011 17.5981 13.0494 18.0074 13.0494H21.0944C21.5038 13.0494 21.8964 12.9011 22.1858 12.6371C22.4753 12.3732 22.6379 12.0152 22.6379 11.642C22.6379 11.2687 22.4753 10.9107 22.1858 10.6468C21.8964 10.3828 21.5038 10.2345 21.0944 10.2345H18.0074ZM16.4639 17.2716C16.4639 16.8983 16.6265 16.5403 16.916 16.2764C17.2055 16.0125 17.5981 15.8642 18.0074 15.8642H21.0944C21.5038 15.8642 21.8964 16.0125 22.1858 16.2764C22.4753 16.5403 22.6379 16.8983 22.6379 17.2716C22.6379 17.6449 22.4753 18.0028 22.1858 18.2668C21.8964 18.5307 21.5038 18.679 21.0944 18.679H18.0074C17.5981 18.679 17.2055 18.5307 16.916 18.2668C16.6265 18.0028 16.4639 17.6449 16.4639 17.2716ZM18.0074 21.4938C17.5981 21.4938 17.2055 21.6421 16.916 21.906C16.6265 22.17 16.4639 22.5279 16.4639 22.9012C16.4639 23.2745 16.6265 23.6325 16.916 23.8964C17.2055 24.1603 17.5981 24.3086 18.0074 24.3086H21.0944C21.5038 24.3086 21.8964 24.1603 22.1858 23.8964C22.4753 23.6325 22.6379 23.2745 22.6379 22.9012C22.6379 22.5279 22.4753 22.17 22.1858 21.906C21.8964 21.6421 21.5038 21.4938 21.0944 21.4938H18.0074ZM10.2899 8.35801C10.2899 7.36263 10.7236 6.40801 11.4955 5.70417C12.2674 5.00033 13.3143 4.60492 14.4059 4.60492H27.2313C28.3229 4.60513 29.3696 5.00068 30.1413 5.70457L37.8959 12.7754C38.6678 13.4791 39.1016 14.4335 39.1018 15.4288V32.7531C39.1018 33.7484 38.6682 34.7031 37.8963 35.4069C37.1244 36.1107 36.0775 36.5062 34.9859 36.5062H14.4059C13.3143 36.5062 12.2674 36.1107 11.4955 35.4069C10.7236 34.7031 10.2899 33.7484 10.2899 32.7531V8.35801ZM14.4059 7.41973C14.133 7.41973 13.8713 7.51859 13.6783 7.69455C13.4853 7.87051 13.3769 8.10916 13.3769 8.35801V32.7531C13.3769 33.0019 13.4853 33.2406 13.6783 33.4165C13.8713 33.5925 14.133 33.6913 14.4059 33.6913H34.9859C35.2588 33.6913 35.5205 33.5925 35.7135 33.4165C35.9064 33.2406 36.0148 33.0019 36.0148 32.7531V16.8025H29.3264C28.3712 16.8025 27.4551 16.4565 26.7797 15.8406C26.1043 15.2247 25.7249 14.3895 25.7249 13.5185V7.41973H14.4059ZM28.8119 8.4706V13.5185C28.8119 13.7775 29.0424 13.9876 29.3264 13.9876H34.8624L28.8119 8.4706ZM7.20296 30.4074C7.20296 30.0341 7.04034 29.6761 6.75088 29.4122C6.46142 29.1483 6.06882 29 5.65946 29C5.2501 29 4.85751 29.1483 4.56805 29.4122C4.27858 29.6761 4.11597 30.0341 4.11597 30.4074V33.6913C4.11597 35.9309 5.09167 38.0788 6.82844 39.6625C8.56521 41.2461 10.9208 42.1358 13.3769 42.1358H36.0148C38.471 42.1358 40.8266 41.2461 42.5633 39.6625C44.3001 38.0788 45.2758 35.9309 45.2758 33.6913V30.4074C45.2758 30.0341 45.1132 29.6761 44.8237 29.4122C44.5343 29.1483 44.1417 29 43.7323 29C43.323 29 42.9304 29.1483 42.6409 29.4122C42.3514 29.6761 42.1888 30.0341 42.1888 30.4074V33.6913C42.1888 35.1844 41.5384 36.6163 40.3805 37.6721C39.2227 38.7279 37.6523 39.321 36.0148 39.321H13.3769C11.7395 39.321 10.1691 38.7279 9.01127 37.6721C7.85343 36.6163 7.20296 35.1844 7.20296 33.6913V30.4074Z" fill="white"/>
</g>
</svg>
