<svg width="60" height="49" viewBox="0 0 60 49" fill="none" xmlns="http://www.w3.org/2000/svg">
<g id="prime:id-card">
<path id="Vector" d="M47.4537 38H12.4878C11.3306 37.9947 10.2227 37.6197 9.40447 36.9563C8.58621 36.293 8.12362 35.3949 8.11707 34.4568V14.2099C8.12362 13.2718 8.58621 12.3736 9.40447 11.7103C10.2227 11.047 11.3306 10.672 12.4878 10.6667H47.4537C48.6109 10.672 49.7188 11.047 50.537 11.7103C51.3553 12.3736 51.8179 13.2718 51.8244 14.2099V34.4568C51.8179 35.3949 51.3553 36.293 50.537 36.9563C49.7188 37.6197 48.6109 37.9947 47.4537 38ZM12.4878 13.7037C12.3222 13.7037 12.1634 13.757 12.0463 13.8519C11.9292 13.9469 11.8634 14.0756 11.8634 14.2099V34.4568C11.8634 34.591 11.9292 34.7198 12.0463 34.8147C12.1634 34.9096 12.3222 34.9629 12.4878 34.9629H47.4537C47.6193 34.9629 47.7781 34.9096 47.8952 34.8147C48.0123 34.7198 48.0781 34.591 48.0781 34.4568V14.2099C48.0781 14.0756 48.0123 13.9469 47.8952 13.8519C47.7781 13.757 47.6193 13.7037 47.4537 13.7037H12.4878Z" fill="white"/>
<path id="Vector_2" d="M22.4781 23.8271C21.4901 23.8271 20.5244 23.5896 19.7029 23.1447C18.8815 22.6997 18.2412 22.0673 17.8632 21.3274C17.4851 20.5875 17.3862 19.7733 17.5789 18.9878C17.7717 18.2022 18.2474 17.4807 18.946 16.9144C19.6446 16.3481 20.5346 15.9624 21.5036 15.8062C22.4725 15.6499 23.4769 15.7301 24.3896 16.0366C25.3024 16.3431 26.0825 16.8621 26.6314 17.528C27.1802 18.1939 27.4732 18.9769 27.4732 19.7777C27.4732 20.8517 26.9469 21.8817 26.0102 22.6411C25.0734 23.4005 23.8029 23.8271 22.4781 23.8271ZM22.4781 18.7654C22.2311 18.7654 21.9897 18.8248 21.7843 18.936C21.5789 19.0473 21.4189 19.2054 21.3244 19.3903C21.2298 19.5753 21.2051 19.7789 21.2533 19.9752C21.3015 20.1716 21.4204 20.352 21.5951 20.4936C21.7697 20.6352 21.9922 20.7316 22.2344 20.7706C22.4767 20.8097 22.7278 20.7897 22.956 20.713C23.1841 20.6364 23.3792 20.5067 23.5164 20.3402C23.6536 20.1737 23.7269 19.978 23.7269 19.7777C23.7269 19.5093 23.5953 19.2518 23.3611 19.0619C23.1269 18.8721 22.8093 18.7654 22.4781 18.7654ZM29.9708 31.9259C29.476 31.9207 29.0033 31.759 28.6534 31.4753C28.3035 31.1917 28.1041 30.8085 28.0976 30.4074C28.0976 29.0306 27.673 27.8765 22.4781 27.8765C17.2831 27.8765 16.8586 29.0306 16.8586 30.4074C16.8586 30.8101 16.6612 31.1964 16.3099 31.4811C15.9586 31.7659 15.4822 31.9259 14.9854 31.9259C14.4886 31.9259 14.0121 31.7659 13.6609 31.4811C13.3096 31.1964 13.1122 30.8101 13.1122 30.4074C13.1122 24.8395 20.1553 24.8395 22.4781 24.8395C24.8008 24.8395 31.8439 24.8395 31.8439 30.4074C31.8375 30.8085 31.638 31.1917 31.2881 31.4753C30.9382 31.759 30.4656 31.9207 29.9708 31.9259ZM42.4586 21.8024H34.9659C34.4691 21.8024 33.9926 21.6425 33.6414 21.3577C33.2901 21.0729 33.0927 20.6867 33.0927 20.2839C33.0927 19.8812 33.2901 19.4949 33.6414 19.2102C33.9926 18.9254 34.4691 18.7654 34.9659 18.7654H42.4586C42.9554 18.7654 43.4318 18.9254 43.7831 19.2102C44.1344 19.4949 44.3318 19.8812 44.3318 20.2839C44.3318 20.6867 44.1344 21.0729 43.7831 21.3577C43.4318 21.6425 42.9554 21.8024 42.4586 21.8024ZM39.961 27.8765H34.9659C34.4691 27.8765 33.9926 27.7165 33.6414 27.4317C33.2901 27.147 33.0927 26.7607 33.0927 26.358C33.0927 25.9553 33.2901 25.569 33.6414 25.2842C33.9926 24.9995 34.4691 24.8395 34.9659 24.8395H39.961C40.4578 24.8395 40.9343 24.9995 41.2856 25.2842C41.6368 25.569 41.8342 25.9553 41.8342 26.358C41.8342 26.7607 41.6368 27.147 41.2856 27.4317C40.9343 27.7165 40.4578 27.8765 39.961 27.8765Z" fill="white"/>
</g>
</svg>
